<?xml version="1.0" encoding="UTF-8"?>
<!DOCTYPE score-partwise PUBLIC "-//Recordare//DTD MusicXML 3.0 Partwise//EN" "http://www.musicxml.org/dtds/partwise.dtd">
<score-partwise version="3.0">
    <work>
        <work-number>29 - LA CUCARACHA</work-number>
    </work>
    <identification>
        <creator type="composer">Amérique du Sud</creator>
        <encoding>
            <software>audiveris 4.2.3363</software>
            <software>ProxyMusic 3.0.110</software>
            <encoding-date>2013-05-28</encoding-date>
        </encoding>
        <source>data\examples\cucaracha.png</source>
    </identification>
    <defaults>
        <scaling>
            <millimeters>7.1120</millimeters>
            <tenths>40</tenths>
        </scaling>
        <page-layout>
            <page-height>945</page-height>
            <page-width>1200</page-width>
            <page-margins type="both">
                <left-margin>80</left-margin>
                <right-margin>80</right-margin>
                <top-margin>80</top-margin>
                <bottom-margin>80</bottom-margin>
            </page-margins>
        </page-layout>
        <lyric-font font-family="Serif" font-size="10"/>
    </defaults>
    <credit page="1">
        <credit-words font-family="serif" font-size="10" font-weight="bold" default-x="56" default-y="889">26</credit-words>
    </credit>
    <credit page="1">
        <credit-words font-family="serif" font-size="15" default-x="441" default-y="861">29 - LA CUCARACHA</credit-words>
    </credit>
    <credit page="1">
        <credit-words font-family="serif" font-size="12" default-x="963" default-y="813">Amérique du Sud</credit-words>
    </credit>
    <part-list>
        <score-part id="P1">
            <part-name>Part_1</part-name>
            <score-instrument id="P1-I1">
                <instrument-name>Acoustic Grand Piano</instrument-name>
            </score-instrument>
            <midi-instrument id="P1-I1">
                <midi-channel>1</midi-channel>
                <midi-program>1</midi-program>
                <volume>78</volume>
            </midi-instrument>
        </score-part>
    </part-list>
    <part id="P1">
        <measure number="1" width="263">
            <print>
                <system-layout>
                    <system-margins>
                        <left-margin>49</left-margin>
                        <right-margin>-20</right-margin>
                    </system-margins>
                    <top-system-distance>94</top-system-distance>
                </system-layout>
                <staff-layout number="2">
                    <staff-distance>76</staff-distance>
                </staff-layout>
                <measure-numbering>system</measure-numbering>
            </print>
            <attributes>
                <divisions>2</divisions>
                <time>
                    <beats>3</beats>
                    <beat-type>4</beat-type>
                </time>
                <staves>2</staves>
                <clef number="1">
                    <sign>G</sign>
                    <line>2</line>
                </clef>
                <clef number="2">
                    <sign>G</sign>
                    <line>2</line>
                </clef>
                <staff-details print-object="yes"/>
            </attributes>
            <direction>
                <direction-type>
                    <words></words>
                </direction-type>
                <sound tempo="120"/>
            </direction>
            <direction placement="below">
                <direction-type>
                    <dynamics default-y="-68" relative-x="8">
                        <mf/>
                    </dynamics>
                </direction-type>
                <staff>1</staff>
                <sound dynamics="89"/>
            </direction>
            <direction placement="above">
                <direction-type>
                    <words font-family="serif" font-size="10" default-y="33" relative-x="-33">Rapide et joyeux (L112 env.)</words>
                </direction-type>
                <staff>1</staff>
            </direction>
            <note default-x="73">
                <pitch>
                    <step>G</step>
                    <octave>4</octave>
                </pitch>
                <duration>1</duration>
                <voice>1</voice>
                <type>eighth</type>
                <stem default-y="10">up</stem>
                <staff>1</staff>
                <beam number="1">begin</beam>
            </note>
            <note default-x="104">
                <pitch>
                    <step>G</step>
                    <octave>4</octave>
                </pitch>
                <duration>1</duration>
                <voice>1</voice>
                <type>eighth</type>
                <stem default-y="10">up</stem>
                <staff>1</staff>
                <beam number="1">end</beam>
            </note>
            <note default-x="139">
                <pitch>
                    <step>C</step>
                    <octave>5</octave>
                </pitch>
                <duration>1</duration>
                <voice>1</voice>
                <type>eighth</type>
                <stem default-y="-56">down</stem>
                <staff>1</staff>
                <beam number="1">begin</beam>
            </note>
            <note default-x="166">
                <pitch>
                    <step>C</step>
                    <octave>5</octave>
                </pitch>
                <duration>1</duration>
                <voice>1</voice>
                <type>eighth</type>
                <stem default-y="-56">down</stem>
                <staff>1</staff>
                <beam number="1">end</beam>
            </note>
            <note default-x="197">
                <pitch>
                    <step>E</step>
                    <octave>5</octave>
                </pitch>
                <duration>1</duration>
                <voice>1</voice>
                <type>eighth</type>
                <stem default-y="-45">down</stem>
                <staff>1</staff>
                <beam number="1">begin</beam>
            </note>
            <note default-x="228">
                <pitch>
                    <step>E</step>
                    <octave>5</octave>
                </pitch>
                <duration>1</duration>
                <voice>1</voice>
                <type>eighth</type>
                <stem default-y="-45">down</stem>
                <staff>1</staff>
                <beam number="1">end</beam>
            </note>
            <backup>
                <duration>6</duration>
            </backup>
            <direction placement="below">
                <direction-type>
                    <dynamics default-y="-78" relative-x="7">
                        <p/>
                    </dynamics>
                </direction-type>
                <staff>2</staff>
                <sound dynamics="56"/>
            </direction>
            <note default-x="74">
                <pitch>
                    <step>C</step>
                    <octave>4</octave>
                </pitch>
                <duration>2</duration>
                <voice>2</voice>
                <type>quarter</type>
                <stem default-y="-9">up</stem>
                <staff>2</staff>
            </note>
            <note default-x="140">
                <pitch>
                    <step>E</step>
                    <octave>5</octave>
                </pitch>
                <duration>2</duration>
                <voice>2</voice>
                <type>quarter</type>
                <stem default-y="-66">down</stem>
                <staff>2</staff>
            </note>
            <note default-x="140">
                <chord/>
                <pitch>
                    <step>C</step>
                    <octave>5</octave>
                </pitch>
                <duration>2</duration>
                <voice>2</voice>
                <type>quarter</type>
                <stem default-y="-66">down</stem>
                <staff>2</staff>
            </note>
            <note default-x="140">
                <chord/>
                <pitch>
                    <step>G</step>
                    <octave>4</octave>
                </pitch>
                <duration>2</duration>
                <voice>2</voice>
                <type>quarter</type>
                <stem default-y="-66">down</stem>
                <staff>2</staff>
            </note>
            <note default-x="198">
                <pitch>
                    <step>E</step>
                    <octave>5</octave>
                </pitch>
                <duration>2</duration>
                <voice>2</voice>
                <type>quarter</type>
                <stem default-y="-65">down</stem>
                <staff>2</staff>
            </note>
            <note default-x="198">
                <chord/>
                <pitch>
                    <step>C</step>
                    <octave>5</octave>
                </pitch>
                <duration>2</duration>
                <voice>2</voice>
                <type>quarter</type>
                <stem default-y="-65">down</stem>
                <staff>2</staff>
            </note>
            <note default-x="198">
                <chord/>
                <pitch>
                    <step>G</step>
                    <octave>4</octave>
                </pitch>
                <duration>2</duration>
                <voice>2</voice>
                <type>quarter</type>
                <stem default-y="-65">down</stem>
                <staff>2</staff>
            </note>
        </measure>
        <measure number="2" width="170">
            <print new-system="no"/>
            <note default-x="17">
                <pitch>
                    <step>G</step>
                    <octave>5</octave>
                </pitch>
                <duration>2</duration>
                <voice>1</voice>
                <type>quarter</type>
                <stem default-y="-34">down</stem>
                <staff>1</staff>
            </note>
            <note default-x="70">
                <pitch>
                    <step>E</step>
                    <octave>5</octave>
                </pitch>
                <duration>4</duration>
                <voice>1</voice>
                <type>half</type>
                <stem default-y="-44">down</stem>
                <staff>1</staff>
            </note>
            <backup>
                <duration>6</duration>
            </backup>
            <note default-x="17">
                <pitch>
                    <step>G</step>
                    <octave>3</octave>
                </pitch>
                <duration>2</duration>
                <voice>2</voice>
                <type>quarter</type>
                <stem default-y="-18">up</stem>
                <staff>2</staff>
            </note>
            <note default-x="70">
                <pitch>
                    <step>E</step>
                    <octave>5</octave>
                </pitch>
                <duration>2</duration>
                <voice>2</voice>
                <type>quarter</type>
                <stem default-y="-65">down</stem>
                <staff>2</staff>
            </note>
            <note default-x="70">
                <chord/>
                <pitch>
                    <step>C</step>
                    <octave>5</octave>
                </pitch>
                <duration>2</duration>
                <voice>2</voice>
                <type>quarter</type>
                <stem default-y="-65">down</stem>
                <staff>2</staff>
            </note>
            <note default-x="71">
                <chord/>
                <pitch>
                    <step>G</step>
                    <octave>4</octave>
                </pitch>
                <duration>2</duration>
                <voice>2</voice>
                <type>quarter</type>
                <stem default-y="-65">down</stem>
                <staff>2</staff>
            </note>
            <note default-x="118">
                <pitch>
                    <step>E</step>
                    <octave>5</octave>
                </pitch>
                <duration>2</duration>
                <voice>2</voice>
                <type>quarter</type>
                <stem default-y="-64">down</stem>
                <staff>2</staff>
            </note>
            <note default-x="118">
                <chord/>
                <pitch>
                    <step>C</step>
                    <octave>5</octave>
                </pitch>
                <duration>2</duration>
                <voice>2</voice>
                <type>quarter</type>
                <stem default-y="-64">down</stem>
                <staff>2</staff>
            </note>
            <note default-x="118">
                <chord/>
                <pitch>
                    <step>G</step>
                    <octave>4</octave>
                </pitch>
                <duration>2</duration>
                <voice>2</voice>
                <type>quarter</type>
                <stem default-y="-64">down</stem>
                <staff>2</staff>
            </note>
        </measure>
        <measure number="3" width="206">
            <print new-system="no"/>
            <note default-x="18">
                <pitch>
                    <step>G</step>
                    <octave>5</octave>
                </pitch>
                <duration>1</duration>
                <voice>1</voice>
                <type>eighth</type>
                <stem default-y="-36">down</stem>
                <staff>1</staff>
                <beam number="1">begin</beam>
            </note>
            <note default-x="50">
                <pitch>
                    <step>G</step>
                    <octave>5</octave>
                </pitch>
                <duration>1</duration>
                <voice>1</voice>
                <type>eighth</type>
                <stem default-y="-36">down</stem>
                <staff>1</staff>
                <beam number="1">end</beam>
            </note>
            <note default-x="80">
                <pitch>
                    <step>A</step>
                    <octave>5</octave>
                </pitch>
                <duration>1</duration>
                <voice>1</voice>
                <type>eighth</type>
                <stem default-y="-34">down</stem>
                <staff>1</staff>
                <beam number="1">begin</beam>
            </note>
            <note default-x="109">
                <pitch>
                    <step>G</step>
                    <octave>5</octave>
                </pitch>
                <duration>1</duration>
                <voice>1</voice>
                <type>eighth</type>
                <stem default-y="-35">down</stem>
                <staff>1</staff>
                <beam number="1">end</beam>
            </note>
            <note default-x="138">
                <pitch>
                    <step>F</step>
                    <octave>5</octave>
                </pitch>
                <duration>1</duration>
                <voice>1</voice>
                <type>eighth</type>
                <stem default-y="-45">down</stem>
                <staff>1</staff>
                <beam number="1">begin</beam>
            </note>
            <note default-x="170">
                <pitch>
                    <step>E</step>
                    <octave>5</octave>
                </pitch>
                <duration>1</duration>
                <voice>1</voice>
                <type>eighth</type>
                <stem default-y="-45">down</stem>
                <staff>1</staff>
                <beam number="1">end</beam>
            </note>
            <backup>
                <duration>6</duration>
            </backup>
            <note default-x="18">
                <pitch>
                    <step>C</step>
                    <octave>4</octave>
                </pitch>
                <duration>2</duration>
                <voice>2</voice>
                <type>quarter</type>
                <stem default-y="-14">up</stem>
                <staff>2</staff>
            </note>
            <note default-x="81">
                <pitch>
                    <step>E</step>
                    <octave>5</octave>
                </pitch>
                <duration>2</duration>
                <voice>2</voice>
                <type>quarter</type>
                <stem default-y="-67">down</stem>
                <staff>2</staff>
            </note>
            <note default-x="81">
                <chord/>
                <pitch>
                    <step>C</step>
                    <octave>5</octave>
                </pitch>
                <duration>2</duration>
                <voice>2</voice>
                <type>quarter</type>
                <stem default-y="-67">down</stem>
                <staff>2</staff>
            </note>
            <note default-x="82">
                <chord/>
                <pitch>
                    <step>G</step>
                    <octave>4</octave>
                </pitch>
                <duration>2</duration>
                <voice>2</voice>
                <type>quarter</type>
                <stem default-y="-67">down</stem>
                <staff>2</staff>
            </note>
            <note default-x="139">
                <pitch>
                    <step>C</step>
                    <alter>1</alter>
                    <octave>4</octave>
                </pitch>
                <duration>2</duration>
                <voice>2</voice>
                <type>quarter</type>
                <accidental>sharp</accidental>
                <stem default-y="-15">up</stem>
                <staff>2</staff>
            </note>
        </measure>
        <measure number="4" width="173">
            <print new-system="no"/>
            <note default-x="14">
                <pitch>
                    <step>F</step>
                    <octave>5</octave>
                </pitch>
                <duration>2</duration>
                <voice>1</voice>
                <type>quarter</type>
                <stem default-y="-39">down</stem>
                <staff>1</staff>
            </note>
            <note default-x="66">
                <pitch>
                    <step>D</step>
                    <octave>5</octave>
                </pitch>
                <duration>4</duration>
                <voice>1</voice>
                <type>half</type>
                <stem default-y="-49">down</stem>
                <staff>1</staff>
            </note>
            <backup>
                <duration>6</duration>
            </backup>
            <note default-x="15">
                <pitch>
                    <step>D</step>
                    <octave>4</octave>
                </pitch>
                <duration>2</duration>
                <voice>2</voice>
                <type>quarter</type>
                <stem default-y="-8">up</stem>
                <staff>2</staff>
            </note>
            <note default-x="67">
                <pitch>
                    <step>F</step>
                    <octave>5</octave>
                </pitch>
                <duration>2</duration>
                <voice>2</voice>
                <type>quarter</type>
                <stem default-y="-65">down</stem>
                <staff>2</staff>
            </note>
            <note default-x="67">
                <chord/>
                <pitch>
                    <step>B</step>
                    <octave>4</octave>
                </pitch>
                <duration>2</duration>
                <voice>2</voice>
                <type>quarter</type>
                <stem default-y="-65">down</stem>
                <staff>2</staff>
            </note>
            <note default-x="67">
                <chord/>
                <pitch>
                    <step>G</step>
                    <octave>4</octave>
                </pitch>
                <duration>2</duration>
                <voice>2</voice>
                <type>quarter</type>
                <stem default-y="-65">down</stem>
                <staff>2</staff>
            </note>
            <note default-x="115">
                <pitch>
                    <step>F</step>
                    <octave>5</octave>
                </pitch>
                <duration>2</duration>
                <voice>2</voice>
                <type>quarter</type>
                <stem default-y="-64">down</stem>
                <staff>2</staff>
            </note>
            <note default-x="115">
                <chord/>
                <pitch>
                    <step>B</step>
                    <octave>4</octave>
                </pitch>
                <duration>2</duration>
                <voice>2</voice>
                <type>quarter</type>
                <stem default-y="-64">down</stem>
                <staff>2</staff>
            </note>
            <note default-x="115">
                <chord/>
                <pitch>
                    <step>G</step>
                    <octave>4</octave>
                </pitch>
                <duration>2</duration>
                <voice>2</voice>
                <type>quarter</type>
                <stem default-y="-64">down</stem>
                <staff>2</staff>
            </note>
        </measure>
        <measure number="5" width="200">
            <print new-system="no"/>
            <note default-x="14">
                <pitch>
                    <step>G</step>
                    <octave>4</octave>
                </pitch>
                <duration>1</duration>
                <voice>1</voice>
                <type>eighth</type>
                <stem default-y="10">up</stem>
                <staff>1</staff>
                <beam number="1">begin</beam>
            </note>
            <note default-x="44">
                <pitch>
                    <step>G</step>
                    <octave>4</octave>
                </pitch>
                <duration>1</duration>
                <voice>1</voice>
                <type>eighth</type>
                <stem default-y="11">up</stem>
                <staff>1</staff>
                <beam number="1">end</beam>
            </note>
            <note default-x="76">
                <pitch>
                    <step>B</step>
                    <octave>4</octave>
                </pitch>
                <duration>1</duration>
                <voice>1</voice>
                <type>eighth</type>
                <stem default-y="-62">down</stem>
                <staff>1</staff>
                <beam number="1">begin</beam>
            </note>
            <note default-x="105">
                <pitch>
                    <step>B</step>
                    <octave>4</octave>
                </pitch>
                <duration>1</duration>
                <voice>1</voice>
                <type>eighth</type>
                <stem default-y="-62">down</stem>
                <staff>1</staff>
                <beam number="1">end</beam>
            </note>
            <note default-x="135">
                <pitch>
                    <step>D</step>
                    <octave>5</octave>
                </pitch>
                <duration>1</duration>
                <voice>1</voice>
                <type>eighth</type>
                <stem default-y="-53">down</stem>
                <staff>1</staff>
                <beam number="1">begin</beam>
            </note>
            <note default-x="165">
                <pitch>
                    <step>D</step>
                    <octave>5</octave>
                </pitch>
                <duration>1</duration>
                <voice>1</voice>
                <type>eighth</type>
                <stem default-y="-52">down</stem>
                <staff>1</staff>
                <beam number="1">end</beam>
            </note>
            <backup>
                <duration>6</duration>
            </backup>
            <note default-x="16">
                <pitch>
                    <step>G</step>
                    <octave>3</octave>
                </pitch>
                <duration>2</duration>
                <voice>2</voice>
                <type>quarter</type>
                <stem default-y="-19">up</stem>
                <staff>2</staff>
            </note>
            <note default-x="77">
                <pitch>
                    <step>F</step>
                    <octave>5</octave>
                </pitch>
                <duration>2</duration>
                <voice>2</voice>
                <type>quarter</type>
                <stem default-y="-65">down</stem>
                <staff>2</staff>
            </note>
            <note default-x="77">
                <chord/>
                <pitch>
                    <step>B</step>
                    <octave>4</octave>
                </pitch>
                <duration>2</duration>
                <voice>2</voice>
                <type>quarter</type>
                <stem default-y="-65">down</stem>
                <staff>2</staff>
            </note>
            <note default-x="77">
                <chord/>
                <pitch>
                    <step>G</step>
                    <octave>4</octave>
                </pitch>
                <duration>2</duration>
                <voice>2</voice>
                <type>quarter</type>
                <stem default-y="-65">down</stem>
                <staff>2</staff>
            </note>
            <note default-x="135">
                <pitch>
                    <step>F</step>
                    <octave>5</octave>
                </pitch>
                <duration>2</duration>
                <voice>2</voice>
                <type>quarter</type>
                <stem default-y="-66">down</stem>
                <staff>2</staff>
            </note>
            <note default-x="136">
                <chord/>
                <pitch>
                    <step>B</step>
                    <octave>4</octave>
                </pitch>
                <duration>2</duration>
                <voice>2</voice>
                <type>quarter</type>
                <stem default-y="-66">down</stem>
                <staff>2</staff>
            </note>
            <note default-x="136">
                <chord/>
                <pitch>
                    <step>G</step>
                    <octave>4</octave>
                </pitch>
                <duration>2</duration>
                <voice>2</voice>
                <type>quarter</type>
                <stem default-y="-66">down</stem>
                <staff>2</staff>
            </note>
        </measure>
        <measure number="6" width="193">
            <print new-system="yes">
                <system-layout>
                    <system-margins>
                        <left-margin>-8</left-margin>
                        <right-margin>-21</right-margin>
                    </system-margins>
                    <system-distance>122</system-distance>
                </system-layout>
                <staff-layout number="2">
                    <staff-distance>77</staff-distance>
                </staff-layout>
            </print>
            <attributes>
                <staff-details print-object="yes"/>
            </attributes>
            <note default-x="55">
                <pitch>
                    <step>F</step>
                    <octave>5</octave>
                </pitch>
                <duration>2</duration>
                <voice>1</voice>
                <type>quarter</type>
                <stem default-y="-42">down</stem>
                <staff>1</staff>
            </note>
            <note default-x="102">
                <pitch>
                    <step>D</step>
                    <octave>5</octave>
                </pitch>
                <duration>4</duration>
                <voice>1</voice>
                <type>half</type>
                <stem default-y="-52">down</stem>
                <staff>1</staff>
            </note>
            <backup>
                <duration>6</duration>
            </backup>
            <note default-x="55">
                <pitch>
                    <step>D</step>
                    <octave>4</octave>
                </pitch>
                <duration>2</duration>
                <voice>2</voice>
                <type>quarter</type>
                <stem default-y="-6">up</stem>
                <staff>2</staff>
            </note>
            <note default-x="103">
                <pitch>
                    <step>F</step>
                    <octave>5</octave>
                </pitch>
                <duration>2</duration>
                <voice>2</voice>
                <type>quarter</type>
                <stem default-y="-64">down</stem>
                <staff>2</staff>
            </note>
            <note default-x="103">
                <chord/>
                <pitch>
                    <step>B</step>
                    <octave>4</octave>
                </pitch>
                <duration>2</duration>
                <voice>2</voice>
                <type>quarter</type>
                <stem default-y="-64">down</stem>
                <staff>2</staff>
            </note>
            <note default-x="103">
                <chord/>
                <pitch>
                    <step>G</step>
                    <octave>4</octave>
                </pitch>
                <duration>2</duration>
                <voice>2</voice>
                <type>quarter</type>
                <stem default-y="-64">down</stem>
                <staff>2</staff>
            </note>
            <note default-x="148">
                <pitch>
                    <step>F</step>
                    <octave>5</octave>
                </pitch>
                <duration>2</duration>
                <voice>2</voice>
                <type>quarter</type>
                <stem default-y="-64">down</stem>
                <staff>2</staff>
            </note>
            <note default-x="148">
                <chord/>
                <pitch>
                    <step>B</step>
                    <octave>4</octave>
                </pitch>
                <duration>2</duration>
                <voice>2</voice>
                <type>quarter</type>
                <stem default-y="-64">down</stem>
                <staff>2</staff>
            </note>
            <note default-x="148">
                <chord/>
                <pitch>
                    <step>G</step>
                    <octave>4</octave>
                </pitch>
                <duration>2</duration>
                <voice>2</voice>
                <type>quarter</type>
                <stem default-y="-64">down</stem>
                <staff>2</staff>
            </note>
        </measure>
        <measure number="7" width="183">
            <print new-system="no"/>
            <note default-x="17">
                <pitch>
                    <step>G</step>
                    <octave>5</octave>
                </pitch>
                <duration>1</duration>
                <voice>1</voice>
                <type>eighth</type>
                <stem default-y="-39">down</stem>
                <staff>1</staff>
                <beam number="1">begin</beam>
            </note>
            <note default-x="47">
                <pitch>
                    <step>A</step>
                    <octave>5</octave>
                </pitch>
                <duration>1</duration>
                <voice>1</voice>
                <type>eighth</type>
                <stem default-y="-38">down</stem>
                <staff>1</staff>
                <beam number="1">end</beam>
            </note>
            <note default-x="73">
                <pitch>
                    <step>G</step>
                    <octave>5</octave>
                </pitch>
                <duration>1</duration>
                <voice>1</voice>
                <type>eighth</type>
                <stem default-y="-43">down</stem>
                <staff>1</staff>
                <beam number="1">begin</beam>
            </note>
            <note default-x="99">
                <pitch>
                    <step>F</step>
                    <octave>5</octave>
                </pitch>
                <duration>1</duration>
                <voice>1</voice>
                <type>eighth</type>
                <stem default-y="-43">down</stem>
                <staff>1</staff>
                <beam number="1">end</beam>
            </note>
            <note default-x="128">
                <pitch>
                    <step>E</step>
                    <octave>5</octave>
                </pitch>
                <duration>1</duration>
                <voice>1</voice>
                <type>eighth</type>
                <stem default-y="-49">down</stem>
                <staff>1</staff>
                <beam number="1">begin</beam>
            </note>
            <note default-x="155">
                <pitch>
                    <step>D</step>
                    <octave>5</octave>
                </pitch>
                <duration>1</duration>
                <voice>1</voice>
                <type>eighth</type>
                <stem default-y="-50">down</stem>
                <staff>1</staff>
                <beam number="1">end</beam>
            </note>
            <backup>
                <duration>6</duration>
            </backup>
            <note default-x="17">
                <pitch>
                    <step>G</step>
                    <octave>3</octave>
                </pitch>
                <duration>2</duration>
                <voice>2</voice>
                <type>quarter</type>
                <stem default-y="-16">up</stem>
                <staff>2</staff>
            </note>
            <note default-x="74">
                <pitch>
                    <step>F</step>
                    <octave>5</octave>
                </pitch>
                <duration>2</duration>
                <voice>2</voice>
                <type>quarter</type>
                <stem default-y="-67">down</stem>
                <staff>2</staff>
            </note>
            <note default-x="74">
                <chord/>
                <pitch>
                    <step>B</step>
                    <octave>4</octave>
                </pitch>
                <duration>2</duration>
                <voice>2</voice>
                <type>quarter</type>
                <stem default-y="-67">down</stem>
                <staff>2</staff>
            </note>
            <note default-x="74">
                <chord/>
                <pitch>
                    <step>G</step>
                    <octave>4</octave>
                </pitch>
                <duration>2</duration>
                <voice>2</voice>
                <type>quarter</type>
                <stem default-y="-67">down</stem>
                <staff>2</staff>
            </note>
            <note default-x="128">
                <pitch>
                    <step>G</step>
                    <octave>3</octave>
                </pitch>
                <duration>2</duration>
                <voice>2</voice>
                <type>quarter</type>
                <stem default-y="-19">up</stem>
                <staff>2</staff>
            </note>
        </measure>
        <measure number="8" width="179">
            <print new-system="no"/>
            <note default-x="17">
                <pitch>
                    <step>E</step>
                    <octave>5</octave>
                </pitch>
                <duration>2</duration>
                <voice>1</voice>
                <type>quarter</type>
                <stem default-y="-46">down</stem>
                <staff>1</staff>
            </note>
            <note default-x="65">
                <pitch>
                    <step>C</step>
                    <octave>5</octave>
                </pitch>
                <duration>1</duration>
                <voice>1</voice>
                <type>eighth</type>
                <stem default-y="-58">down</stem>
                <staff>1</staff>
            </note>
            <note default-x="90">
                <pitch>
                    <step>G</step>
                    <octave>4</octave>
                </pitch>
                <duration>1</duration>
                <voice>1</voice>
                <type>eighth</type>
                <stem default-y="13">up</stem>
                <staff>1</staff>
                <notations>
                    <slur type="start" number="1" placement="above" default-x="15" default-y="20" bezier-x="47" bezier-y="43"/>
                </notations>
            </note>
            <note default-x="118">
                <pitch>
                    <step>G</step>
                    <octave>4</octave>
                </pitch>
                <duration>1</duration>
                <voice>1</voice>
                <type>eighth</type>
                <stem default-y="10">up</stem>
                <staff>1</staff>
                <beam number="1">begin</beam>
            </note>
            <note default-x="144">
                <pitch>
                    <step>G</step>
                    <octave>4</octave>
                </pitch>
                <duration>1</duration>
                <voice>1</voice>
                <type>eighth</type>
                <stem default-y="10">up</stem>
                <staff>1</staff>
                <beam number="1">end</beam>
            </note>
            <backup>
                <duration>6</duration>
            </backup>
            <note default-x="17">
                <pitch>
                    <step>C</step>
                    <octave>4</octave>
                </pitch>
                <duration>2</duration>
                <voice>2</voice>
                <type>quarter</type>
                <stem default-y="-12">up</stem>
                <staff>2</staff>
            </note>
            <note default-x="65">
                <pitch>
                    <step>E</step>
                    <octave>5</octave>
                </pitch>
                <duration>2</duration>
                <voice>2</voice>
                <type>quarter</type>
                <stem default-y="-70">down</stem>
                <staff>2</staff>
            </note>
            <note default-x="65">
                <chord/>
                <pitch>
                    <step>C</step>
                    <octave>5</octave>
                </pitch>
                <duration>2</duration>
                <voice>2</voice>
                <type>quarter</type>
                <stem default-y="-70">down</stem>
                <staff>2</staff>
            </note>
            <note default-x="65">
                <chord/>
                <pitch>
                    <step>G</step>
                    <octave>4</octave>
                </pitch>
                <duration>2</duration>
                <voice>2</voice>
                <type>quarter</type>
                <stem default-y="-70">down</stem>
                <staff>2</staff>
            </note>
            <note default-x="120">
                <rest/>
                <duration>2</duration>
                <voice>2</voice>
                <type>quarter</type>
                <staff>2</staff>
            </note>
        </measure>
        <measure number="9" width="171">
            <print new-system="no"/>
            <direction placement="below">
                <direction-type>
                    <wedge type="diminuendo" spread="9" default-y="-50"/>
                </direction-type>
                <staff>1</staff>
            </direction>
            <note default-x="12">
                <pitch>
                    <step>C</step>
                    <octave>5</octave>
                </pitch>
                <duration>2</duration>
                <voice>1</voice>
                <type>quarter</type>
                <stem default-y="-56">down</stem>
                <staff>1</staff>
                <notations>
                    <slur type="stop" number="1" default-x="12" default-y="-1" bezier-x="-9" bezier-y="33"/>
                </notations>
            </note>
            <direction>
                <direction-type>
                    <wedge type="stop" spread="0"/>
                </direction-type>
                <staff>1</staff>
            </direction>
            <note default-x="60">
                <pitch>
                    <step>E</step>
                    <octave>5</octave>
                </pitch>
                <duration>1</duration>
                <voice>1</voice>
                <type>eighth</type>
                <stem default-y="-50">down</stem>
                <staff>1</staff>
            </note>
            <note default-x="85">
                <pitch>
                    <step>C</step>
                    <octave>5</octave>
                </pitch>
                <duration>1</duration>
                <voice>1</voice>
                <type>eighth</type>
                <stem default-y="-57">down</stem>
                <staff>1</staff>
                <notations>
                    <slur type="start" number="1" placement="above" default-x="7" default-y="-3" bezier-x="31" bezier-y="25"/>
                </notations>
            </note>
            <note default-x="113">
                <pitch>
                    <step>C</step>
                    <octave>5</octave>
                </pitch>
                <duration>1</duration>
                <voice>1</voice>
                <type>eighth</type>
                <stem default-y="-56">down</stem>
                <staff>1</staff>
                <beam number="1">begin</beam>
            </note>
            <note default-x="140">
                <pitch>
                    <step>C</step>
                    <octave>5</octave>
                </pitch>
                <duration>1</duration>
                <voice>1</voice>
                <type>eighth</type>
                <stem default-y="-55">down</stem>
                <staff>1</staff>
                <beam number="1">end</beam>
            </note>
            <backup>
                <duration>6</duration>
            </backup>
            <note default-x="13">
                <pitch>
                    <step>C</step>
                    <octave>4</octave>
                </pitch>
                <duration>2</duration>
                <voice>2</voice>
                <type>quarter</type>
                <stem default-y="-14">up</stem>
                <staff>2</staff>
            </note>
            <note default-x="60">
                <pitch>
                    <step>E</step>
                    <octave>5</octave>
                </pitch>
                <duration>2</duration>
                <voice>2</voice>
                <type>quarter</type>
                <stem default-y="-67">down</stem>
                <staff>2</staff>
            </note>
            <note default-x="60">
                <chord/>
                <pitch>
                    <step>C</step>
                    <octave>5</octave>
                </pitch>
                <duration>2</duration>
                <voice>2</voice>
                <type>quarter</type>
                <stem default-y="-67">down</stem>
                <staff>2</staff>
            </note>
            <note default-x="60">
                <chord/>
                <pitch>
                    <step>G</step>
                    <octave>4</octave>
                </pitch>
                <duration>2</duration>
                <voice>2</voice>
                <type>quarter</type>
                <stem default-y="-67">down</stem>
                <staff>2</staff>
            </note>
            <note default-x="112">
                <pitch>
                    <step>G</step>
                    <octave>3</octave>
                </pitch>
                <duration>2</duration>
                <voice>2</voice>
                <type>quarter</type>
                <stem default-y="-19">up</stem>
                <staff>2</staff>
            </note>
        </measure>
        <measure number="10" width="158">
            <print new-system="no"/>
            <direction placement="below">
                <direction-type>
                    <wedge type="diminuendo" spread="8" default-y="-50"/>
                </direction-type>
                <staff>1</staff>
            </direction>
            <note default-x="18">
                <pitch>
                    <step>E</step>
                    <octave>5</octave>
                </pitch>
                <duration>2</duration>
                <voice>1</voice>
                <type>quarter</type>
                <stem default-y="-46">down</stem>
                <staff>1</staff>
                <notations>
                    <articulations>
                        <staccato default-y="7" placement="above"/>
                    </articulations>
                    <slur type="stop" number="1" default-x="0" default-y="16" bezier-x="-33" bezier-y="32"/>
                </notations>
            </note>
            <direction>
                <direction-type>
                    <wedge type="stop" spread="0"/>
                </direction-type>
                <staff>1</staff>
            </direction>
            <note default-x="65">
                <pitch>
                    <step>G</step>
                    <octave>5</octave>
                </pitch>
                <duration>4</duration>
                <voice>1</voice>
                <type>half</type>
                <stem default-y="-35">down</stem>
                <staff>1</staff>
                <notations>
                    <articulations>
                        <tenuto default-y="20" placement="above"/>
                    </articulations>
                </notations>
            </note>
            <backup>
                <duration>6</duration>
            </backup>
            <note default-x="17">
                <pitch>
                    <step>C</step>
                    <octave>4</octave>
                </pitch>
                <duration>2</duration>
                <voice>2</voice>
                <type>quarter</type>
                <stem default-y="-15">up</stem>
                <staff>2</staff>
            </note>
            <note default-x="65">
                <pitch>
                    <step>E</step>
                    <octave>5</octave>
                </pitch>
                <duration>2</duration>
                <voice>2</voice>
                <type>quarter</type>
                <stem default-y="-67">down</stem>
                <staff>2</staff>
            </note>
            <note default-x="65">
                <chord/>
                <pitch>
                    <step>C</step>
                    <octave>5</octave>
                </pitch>
                <duration>2</duration>
                <voice>2</voice>
                <type>quarter</type>
                <stem default-y="-67">down</stem>
                <staff>2</staff>
            </note>
            <note default-x="65">
                <chord/>
                <pitch>
                    <step>G</step>
                    <octave>4</octave>
                </pitch>
                <duration>2</duration>
                <voice>2</voice>
                <type>quarter</type>
                <stem default-y="-67">down</stem>
                <staff>2</staff>
            </note>
            <note default-x="107">
                <pitch>
                    <step>G</step>
                    <octave>3</octave>
                </pitch>
                <duration>2</duration>
                <voice>2</voice>
                <type>quarter</type>
                <stem default-y="-19">up</stem>
                <staff>2</staff>
            </note>
        </measure>
        <measure number="11" width="185">
            <print new-system="no"/>
            <note default-x="14">
                <pitch>
                    <step>C</step>
                    <octave>5</octave>
                </pitch>
                <duration>1</duration>
                <voice>1</voice>
                <type>eighth</type>
                <stem default-y="-59">down</stem>
                <staff>1</staff>
                <beam number="1">begin</beam>
                <notations>
                    <slur type="start" number="1" placement="above" default-x="7" default-y="-3" bezier-x="59" bezier-y="23"/>
                </notations>
            </note>
            <note default-x="45">
                <pitch>
                    <step>B</step>
                    <octave>4</octave>
                </pitch>
                <duration>1</duration>
                <voice>1</voice>
                <type>eighth</type>
                <stem default-y="-60">down</stem>
                <staff>1</staff>
                <beam number="1">end</beam>
            </note>
            <note default-x="72">
                <pitch>
                    <step>C</step>
                    <octave>5</octave>
                </pitch>
                <duration>1</duration>
                <voice>1</voice>
                <type>eighth</type>
                <stem default-y="-58">down</stem>
                <staff>1</staff>
                <beam number="1">begin</beam>
            </note>
            <note default-x="99">
                <pitch>
                    <step>B</step>
                    <octave>4</octave>
                </pitch>
                <duration>1</duration>
                <voice>1</voice>
                <type>eighth</type>
                <stem default-y="-59">down</stem>
                <staff>1</staff>
                <beam number="1">end</beam>
            </note>
            <note default-x="125">
                <pitch>
                    <step>C</step>
                    <octave>5</octave>
                </pitch>
                <duration>1</duration>
                <voice>1</voice>
                <type>eighth</type>
                <stem default-y="-57">down</stem>
                <staff>1</staff>
                <beam number="1">begin</beam>
            </note>
            <note default-x="145">
                <pitch>
                    <step>B</step>
                    <octave>4</octave>
                </pitch>
                <duration>1</duration>
                <voice>1</voice>
                <type>eighth</type>
                <stem default-y="-57">down</stem>
                <notehead filled="no">normal</notehead>
                <staff>1</staff>
                <beam number="1">end</beam>
            </note>
            <note default-x="154">
                <chord/>
                <pitch>
                    <step>C</step>
                    <octave>5</octave>
                </pitch>
                <duration>1</duration>
                <voice>1</voice>
                <type>eighth</type>
                <stem default-y="-57">down</stem>
                <staff>1</staff>
                <beam number="1">end</beam>
            </note>
            <backup>
                <duration>6</duration>
            </backup>
            <note default-x="15">
                <pitch>
                    <step>C</step>
                    <octave>4</octave>
                </pitch>
                <duration>2</duration>
                <voice>2</voice>
                <type>quarter</type>
                <stem default-y="-15">up</stem>
                <staff>2</staff>
            </note>
            <note default-x="73">
                <pitch>
                    <step>E</step>
                    <octave>5</octave>
                </pitch>
                <duration>2</duration>
                <voice>2</voice>
                <type>quarter</type>
                <stem default-y="-68">down</stem>
                <staff>2</staff>
            </note>
            <note default-x="73">
                <chord/>
                <pitch>
                    <step>C</step>
                    <octave>5</octave>
                </pitch>
                <duration>2</duration>
                <voice>2</voice>
                <type>quarter</type>
                <stem default-y="-68">down</stem>
                <staff>2</staff>
            </note>
            <note default-x="73">
                <chord/>
                <pitch>
                    <step>G</step>
                    <octave>4</octave>
                </pitch>
                <duration>2</duration>
                <voice>2</voice>
                <type>quarter</type>
                <stem default-y="-68">down</stem>
                <staff>2</staff>
            </note>
            <note default-x="125">
                <pitch>
                    <step>G</step>
                    <octave>3</octave>
                </pitch>
                <duration>2</duration>
                <voice>2</voice>
                <type>quarter</type>
                <stem default-y="-20">up</stem>
                <staff>2</staff>
            </note>
            <backup>
                <duration>6</duration>
            </backup>
            <forward>
                <duration>5</duration>
                <voice>3</voice>
                <staff>1</staff>
            </forward>
            <note default-x="145">
                <pitch>
                    <step>B</step>
                    <octave>4</octave>
                </pitch>
                <duration>4</duration>
                <voice>3</voice>
                <type>half</type>
                <stem default-y="-5">up</stem>
                <staff>1</staff>
            </note>
        </measure>
        <measure number="12" width="248">
            <print new-system="yes">
                <system-layout>
                    <system-margins>
                        <left-margin>-7</left-margin>
                        <right-margin>-22</right-margin>
                    </system-margins>
                    <system-distance>122</system-distance>
                </system-layout>
                <staff-layout number="2">
                    <staff-distance>76</staff-distance>
                </staff-layout>
            </print>
            <attributes>
                <staff-details print-object="yes"/>
            </attributes>
            <note default-x="54">
                <pitch>
                    <step>D</step>
                    <octave>5</octave>
                </pitch>
                <duration>2</duration>
                <tie type="start"/>
                <voice>1</voice>
                <type>quarter</type>
                <stem default-y="-51">down</stem>
                <staff>1</staff>
                <notations>
                    <tied type="start" orientation="over" bezier-x="23" bezier-y="15" default-x="9" default-y="3"/>
                </notations>
            </note>
            <note default-x="108">
                <pitch>
                    <step>D</step>
                    <octave>5</octave>
                </pitch>
                <duration>1</duration>
                <tie type="stop"/>
                <voice>1</voice>
                <type>eighth</type>
                <stem default-y="25">up</stem>
                <staff>1</staff>
                <beam number="1">begin</beam>
                <notations>
                    <tied type="stop" bezier-x="-11" bezier-y="15" default-x="4" default-y="5"/>
                    <slur type="stop" number="1" default-x="11" default-y="37" bezier-x="-10" bezier-y="52"/>
                </notations>
            </note>
            <note default-x="144">
                <pitch>
                    <step>G</step>
                    <octave>4</octave>
                </pitch>
                <duration>1</duration>
                <voice>1</voice>
                <type>eighth</type>
                <stem default-y="24">up</stem>
                <staff>1</staff>
                <beam number="1">end</beam>
                <notations>
                    <slur type="start" number="1" placement="below" default-x="7" default-y="-45" bezier-x="45" bezier-y="-63"/>
                </notations>
            </note>
            <note default-x="177">
                <pitch>
                    <step>G</step>
                    <octave>4</octave>
                </pitch>
                <duration>1</duration>
                <voice>1</voice>
                <type>eighth</type>
                <stem default-y="11">up</stem>
                <staff>1</staff>
                <beam number="1">begin</beam>
            </note>
            <note default-x="209">
                <pitch>
                    <step>G</step>
                    <octave>4</octave>
                </pitch>
                <duration>1</duration>
                <voice>1</voice>
                <type>eighth</type>
                <stem default-y="10">up</stem>
                <staff>1</staff>
                <beam number="1">end</beam>
            </note>
            <backup>
                <duration>6</duration>
            </backup>
            <note default-x="51">
                <pitch>
                    <step>B</step>
                    <octave>3</octave>
                </pitch>
                <duration>2</duration>
                <voice>2</voice>
                <type>quarter</type>
                <stem default-y="-16">up</stem>
                <staff>2</staff>
            </note>
            <note default-x="110">
                <pitch>
                    <step>F</step>
                    <octave>5</octave>
                </pitch>
                <duration>2</duration>
                <voice>2</voice>
                <type>quarter</type>
                <stem default-y="-68">down</stem>
                <staff>2</staff>
            </note>
            <note default-x="110">
                <chord/>
                <pitch>
                    <step>B</step>
                    <octave>4</octave>
                </pitch>
                <duration>2</duration>
                <voice>2</voice>
                <type>quarter</type>
                <stem default-y="-68">down</stem>
                <staff>2</staff>
            </note>
            <note default-x="110">
                <chord/>
                <pitch>
                    <step>G</step>
                    <octave>4</octave>
                </pitch>
                <duration>2</duration>
                <voice>2</voice>
                <type>quarter</type>
                <stem default-y="-68">down</stem>
                <staff>2</staff>
            </note>
            <note default-x="177">
                <pitch>
                    <step>G</step>
                    <octave>3</octave>
                </pitch>
                <duration>2</duration>
                <voice>2</voice>
                <type>quarter</type>
                <stem default-y="-19">up</stem>
                <staff>2</staff>
            </note>
        </measure>
        <measure number="13" width="213">
            <print new-system="no"/>
            <direction placement="below">
                <direction-type>
                    <wedge type="diminuendo" spread="10" default-y="-52"/>
                </direction-type>
                <staff>1</staff>
            </direction>
            <note default-x="19">
                <pitch>
                    <step>B</step>
                    <octave>4</octave>
                </pitch>
                <duration>2</duration>
                <voice>1</voice>
                <type>quarter</type>
                <stem default-y="20">up</stem>
                <staff>1</staff>
                <notations>
                    <slur type="stop" number="1" default-x="2" default-y="-32" bezier-x="-32" bezier-y="-58"/>
                </notations>
            </note>
            <direction>
                <direction-type>
                    <wedge type="stop" spread="0"/>
                </direction-type>
                <staff>1</staff>
            </direction>
            <note default-x="78">
                <pitch>
                    <step>D</step>
                    <octave>5</octave>
                </pitch>
                <duration>1</duration>
                <voice>1</voice>
                <type>eighth</type>
                <stem default-y="-52">down</stem>
                <staff>1</staff>
            </note>
            <note default-x="109">
                <pitch>
                    <step>G</step>
                    <octave>4</octave>
                </pitch>
                <duration>1</duration>
                <voice>1</voice>
                <type>eighth</type>
                <stem default-y="15">up</stem>
                <staff>1</staff>
            </note>
            <note default-x="142">
                <pitch>
                    <step>G</step>
                    <octave>4</octave>
                </pitch>
                <duration>1</duration>
                <voice>1</voice>
                <type>eighth</type>
                <stem default-y="12">up</stem>
                <staff>1</staff>
                <beam number="1">begin</beam>
            </note>
            <note default-x="175">
                <pitch>
                    <step>G</step>
                    <octave>4</octave>
                </pitch>
                <duration>1</duration>
                <voice>1</voice>
                <type>eighth</type>
                <stem default-y="12">up</stem>
                <staff>1</staff>
                <beam number="1">end</beam>
            </note>
            <backup>
                <duration>6</duration>
            </backup>
            <note default-x="19">
                <pitch>
                    <step>D</step>
                    <octave>4</octave>
                </pitch>
                <duration>2</duration>
                <voice>2</voice>
                <type>quarter</type>
                <stem default-y="-8">up</stem>
                <staff>2</staff>
            </note>
            <note default-x="78">
                <pitch>
                    <step>G</step>
                    <octave>4</octave>
                </pitch>
                <duration>2</duration>
                <voice>2</voice>
                <type>quarter</type>
                <stem default-y="-68">down</stem>
                <staff>2</staff>
            </note>
            <note default-x="78">
                <chord/>
                <pitch>
                    <step>F</step>
                    <octave>5</octave>
                </pitch>
                <duration>2</duration>
                <voice>2</voice>
                <type>quarter</type>
                <stem default-y="-68">down</stem>
                <staff>2</staff>
            </note>
            <note default-x="78">
                <chord/>
                <pitch>
                    <step>B</step>
                    <octave>4</octave>
                </pitch>
                <duration>2</duration>
                <voice>2</voice>
                <type>quarter</type>
                <stem default-y="-68">down</stem>
                <staff>2</staff>
            </note>
            <note default-x="143">
                <pitch>
                    <step>G</step>
                    <octave>3</octave>
                </pitch>
                <duration>2</duration>
                <voice>2</voice>
                <type>quarter</type>
                <stem default-y="-18">up</stem>
                <staff>2</staff>
            </note>
        </measure>
        <measure number="14" width="190">
            <print new-system="no"/>
            <note default-x="17">
                <pitch>
                    <step>D</step>
                    <octave>5</octave>
                </pitch>
                <duration>2</duration>
                <voice>1</voice>
                <type>quarter</type>
                <stem default-y="-51">down</stem>
                <staff>1</staff>
                <notations>
                    <articulations>
                        <staccato default-y="7" placement="above"/>
                    </articulations>
                </notations>
            </note>
            <note default-x="78">
                <pitch>
                    <step>F</step>
                    <octave>5</octave>
                </pitch>
                <duration>4</duration>
                <voice>1</voice>
                <type>half</type>
                <stem default-y="-44">down</stem>
                <staff>1</staff>
                <notations>
                    <articulations>
                        <tenuto default-y="15" placement="above"/>
                    </articulations>
                </notations>
            </note>
            <backup>
                <duration>6</duration>
            </backup>
            <note default-x="17">
                <pitch>
                    <step>D</step>
                    <octave>4</octave>
                </pitch>
                <duration>2</duration>
                <voice>2</voice>
                <type>quarter</type>
                <stem default-y="-7">up</stem>
                <staff>2</staff>
            </note>
            <note default-x="78">
                <pitch>
                    <step>F</step>
                    <octave>5</octave>
                </pitch>
                <duration>2</duration>
                <voice>2</voice>
                <type>quarter</type>
                <stem default-y="-68">down</stem>
                <staff>2</staff>
            </note>
            <note default-x="78">
                <chord/>
                <pitch>
                    <step>B</step>
                    <octave>4</octave>
                </pitch>
                <duration>2</duration>
                <voice>2</voice>
                <type>quarter</type>
                <stem default-y="-68">down</stem>
                <staff>2</staff>
            </note>
            <note default-x="78">
                <chord/>
                <pitch>
                    <step>G</step>
                    <octave>4</octave>
                </pitch>
                <duration>2</duration>
                <voice>2</voice>
                <type>quarter</type>
                <stem default-y="-68">down</stem>
                <staff>2</staff>
            </note>
            <note default-x="130">
                <pitch>
                    <step>G</step>
                    <octave>3</octave>
                </pitch>
                <duration>2</duration>
                <voice>2</voice>
                <type>quarter</type>
                <stem default-y="-17">up</stem>
                <staff>2</staff>
            </note>
        </measure>
        <measure number="15" width="224">
            <print new-system="no"/>
            <note default-x="19">
                <pitch>
                    <step>G</step>
                    <octave>5</octave>
                </pitch>
                <duration>1</duration>
                <voice>1</voice>
                <type>eighth</type>
                <stem default-y="-37">down</stem>
                <staff>1</staff>
                <beam number="1">begin</beam>
            </note>
            <note default-x="51">
                <pitch>
                    <step>A</step>
                    <octave>5</octave>
                </pitch>
                <duration>1</duration>
                <voice>1</voice>
                <type>eighth</type>
                <stem default-y="-33">down</stem>
                <staff>1</staff>
                <beam number="1">end</beam>
            </note>
            <note default-x="83">
                <pitch>
                    <step>G</step>
                    <octave>5</octave>
                </pitch>
                <duration>1</duration>
                <voice>1</voice>
                <type>eighth</type>
                <stem default-y="-42">down</stem>
                <staff>1</staff>
                <beam number="1">begin</beam>
            </note>
            <note default-x="118">
                <pitch>
                    <step>F</step>
                    <octave>5</octave>
                </pitch>
                <duration>1</duration>
                <voice>1</voice>
                <type>eighth</type>
                <stem default-y="-42">down</stem>
                <staff>1</staff>
                <beam number="1">end</beam>
            </note>
            <note default-x="150">
                <pitch>
                    <step>E</step>
                    <octave>5</octave>
                </pitch>
                <duration>1</duration>
                <voice>1</voice>
                <type>eighth</type>
                <stem default-y="-50">down</stem>
                <staff>1</staff>
                <beam number="1">begin</beam>
            </note>
            <note default-x="185">
                <pitch>
                    <step>D</step>
                    <octave>5</octave>
                </pitch>
                <duration>1</duration>
                <voice>1</voice>
                <type>eighth</type>
                <stem default-y="-50">down</stem>
                <staff>1</staff>
                <beam number="1">end</beam>
            </note>
            <backup>
                <duration>6</duration>
            </backup>
            <note default-x="19">
                <pitch>
                    <step>B</step>
                    <octave>3</octave>
                </pitch>
                <duration>2</duration>
                <voice>2</voice>
                <type>quarter</type>
                <stem default-y="-17">up</stem>
                <staff>2</staff>
            </note>
            <note default-x="84">
                <pitch>
                    <step>F</step>
                    <octave>5</octave>
                </pitch>
                <duration>2</duration>
                <voice>2</voice>
                <type>quarter</type>
                <stem default-y="-69">down</stem>
                <staff>2</staff>
            </note>
            <note default-x="84">
                <chord/>
                <pitch>
                    <step>B</step>
                    <octave>4</octave>
                </pitch>
                <duration>2</duration>
                <voice>2</voice>
                <type>quarter</type>
                <stem default-y="-69">down</stem>
                <staff>2</staff>
            </note>
            <note default-x="84">
                <chord/>
                <pitch>
                    <step>G</step>
                    <octave>4</octave>
                </pitch>
                <duration>2</duration>
                <voice>2</voice>
                <type>quarter</type>
                <stem default-y="-69">down</stem>
                <staff>2</staff>
            </note>
            <note default-x="150">
                <pitch>
                    <step>G</step>
                    <octave>3</octave>
                </pitch>
                <duration>2</duration>
                <voice>2</voice>
                <type>quarter</type>
                <stem default-y="-20">up</stem>
                <staff>2</staff>
            </note>
        </measure>
        <measure number="16" width="191">
            <print new-system="no"/>
            <barline location="right">
                <bar-style>light-light</bar-style>
            </barline>
            <note default-x="19">
                <pitch>
                    <step>C</step>
                    <octave>5</octave>
                </pitch>
                <duration>2</duration>
                <voice>1</voice>
                <type>quarter</type>
                <stem default-y="-52">down</stem>
                <staff>1</staff>
                <notations>
                    <articulations>
                        <staccato default-y="7" placement="above"/>
                    </articulations>
                </notations>
            </note>
            <note default-x="72">
                <pitch>
                    <step>C</step>
                    <octave>5</octave>
                </pitch>
                <duration>2</duration>
                <voice>1</voice>
                <type>quarter</type>
                <stem default-y="-56">down</stem>
                <staff>1</staff>
                <notations>
                    <articulations>
                        <tenuto default-y="9" placement="above"/>
                    </articulations>
                </notations>
            </note>
            <note default-x="128">
                <rest/>
                <duration>2</duration>
                <voice>1</voice>
                <type>quarter</type>
                <staff>1</staff>
            </note>
            <backup>
                <duration>6</duration>
            </backup>
            <note default-x="19">
                <rest/>
                <duration>2</duration>
                <voice>2</voice>
                <type>quarter</type>
                <staff>2</staff>
            </note>
            <note default-x="71">
                <pitch>
                    <step>E</step>
                    <octave>5</octave>
                </pitch>
                <duration>2</duration>
                <voice>2</voice>
                <type>quarter</type>
                <stem default-y="24">up</stem>
                <staff>2</staff>
            </note>
            <note default-x="71">
                <chord/>
                <pitch>
                    <step>C</step>
                    <octave>5</octave>
                </pitch>
                <duration>2</duration>
                <voice>2</voice>
                <type>quarter</type>
                <stem default-y="24">up</stem>
                <staff>2</staff>
            </note>
            <note default-x="71">
                <chord/>
                <pitch>
                    <step>G</step>
                    <octave>4</octave>
                </pitch>
                <duration>2</duration>
                <voice>2</voice>
                <type>quarter</type>
                <stem default-y="24">up</stem>
                <staff>2</staff>
            </note>
            <note default-x="128">
                <rest/>
                <duration>2</duration>
                <voice>2</voice>
                <type>quarter</type>
                <staff>2</staff>
            </note>
            <backup>
                <duration>6</duration>
            </backup>
            <note default-x="20">
                <pitch>
                    <step>C</step>
                    <octave>4</octave>
                </pitch>
                <duration>4</duration>
                <voice>3</voice>
                <type>half</type>
                <stem default-y="-87">down</stem>
                <staff>2</staff>
            </note>
            <note default-x="128">
                <rest/>
                <duration>2</duration>
                <voice>3</voice>
                <type>quarter</type>
                <staff>2</staff>
            </note>
        </measure>
    </part>
</score-partwise>