<?xml version="1.0" encoding="UTF-8"?>
<!DOCTYPE score-partwise PUBLIC "-//Recordare//DTD MusicXML 3.0 Partwise//EN" "http://www.musicxml.org/dtds/partwise.dtd">
<score-partwise version="3.0">
    <work>
        <work-number>5 - MAM’ ZELLE ZIZI</work-number>
    </work>
    <identification>
        <creator type="composer">Traditionnel Cajun</creator>
        <encoding>
            <software>audiveris 4.2.3341</software>
            <software>ProxyMusic 3.0.110</software>
            <encoding-date>2013-02-20</encoding-date>
        </encoding>
        <source>D:\soft\audiveris\examples\zizi.png</source>
    </identification>
    <defaults>
        <scaling>
            <millimeters>7.4507</millimeters>
            <tenths>40</tenths>
        </scaling>
        <page-layout>
            <page-height>630</page-height>
            <page-width>1145</page-width>
            <page-margins type="both">
                <left-margin>80</left-margin>
                <right-margin>80</right-margin>
                <top-margin>80</top-margin>
                <bottom-margin>80</bottom-margin>
            </page-margins>
        </page-layout>
        <lyric-font font-family="Serif" font-size="10"/>
    </defaults>
    <credit page="1">
        <credit-words font-family="serif" font-size="16" default-x="405" default-y="588">5 - MAM’ ZELLE ZIZI</credit-words>
    </credit>
    <credit page="1">
        <credit-words font-family="serif" font-size="12" default-x="893" default-y="551">Traditionnel Cajun</credit-words>
    </credit>
    <part-list>
        <score-part id="P1">
            <part-name>Part_1</part-name>
            <score-instrument id="P1-I1">
                <instrument-name>Acoustic Grand Piano</instrument-name>
            </score-instrument>
            <midi-instrument id="P1-I1">
                <midi-channel>1</midi-channel>
                <midi-program>1</midi-program>
                <volume>78</volume>
            </midi-instrument>
        </score-part>
    </part-list>
    <part id="P1">
        <measure number="1" width="280">
            <print>
                <system-layout>
                    <system-margins>
                        <left-margin>25</left-margin>
                        <right-margin>-6</right-margin>
                    </system-margins>
                    <top-system-distance>40</top-system-distance>
                </system-layout>
                <staff-layout number="2">
                    <staff-distance>75</staff-distance>
                </staff-layout>
                <measure-numbering>system</measure-numbering>
            </print>
            <attributes>
                <divisions>4</divisions>
                <time symbol="common">
                    <beats>4</beats>
                    <beat-type>4</beat-type>
                </time>
                <staves>2</staves>
                <clef number="1">
                    <sign>G</sign>
                    <line>2</line>
                </clef>
                <clef number="2">
                    <sign>G</sign>
                    <line>2</line>
                </clef>
                <staff-details print-object="yes"/>
            </attributes>
            <direction>
                <direction-type>
                    <words></words>
                </direction-type>
                <sound tempo="60"/>
            </direction>
            <direction placement="above">
                <direction-type>
                    <words font-family="serif" font-size="12" default-y="30" relative-x="-31">J: 100 env.</words>
                </direction-type>
                <staff>1</staff>
            </direction>
            <note default-x="65">
                <pitch>
                    <step>C</step>
                    <octave>5</octave>
                </pitch>
                <duration>3</duration>
                <voice>1</voice>
                <type>eighth</type>
                <dot/>
                <stem default-y="-56">down</stem>
                <staff>1</staff>
                <beam number="1">begin</beam>
            </note>
            <note default-x="100">
                <pitch>
                    <step>B</step>
                    <octave>4</octave>
                </pitch>
                <duration>1</duration>
                <voice>1</voice>
                <type>16th</type>
                <stem default-y="-57">down</stem>
                <staff>1</staff>
                <beam number="1">end</beam>
                <beam number="2">backward hook</beam>
            </note>
            <note default-x="118">
                <pitch>
                    <step>A</step>
                    <octave>4</octave>
                </pitch>
                <duration>2</duration>
                <voice>1</voice>
                <type>eighth</type>
                <stem default-y="10">up</stem>
                <staff>1</staff>
                <beam number="1">begin</beam>
            </note>
            <note default-x="144">
                <pitch>
                    <step>A</step>
                    <octave>4</octave>
                </pitch>
                <duration>2</duration>
                <voice>1</voice>
                <type>eighth</type>
                <stem default-y="10">up</stem>
                <staff>1</staff>
                <beam number="1">end</beam>
            </note>
            <note default-x="175">
                <pitch>
                    <step>C</step>
                    <octave>5</octave>
                </pitch>
                <duration>2</duration>
                <voice>1</voice>
                <type>eighth</type>
                <stem default-y="-56">down</stem>
                <staff>1</staff>
                <beam number="1">begin</beam>
            </note>
            <note default-x="203">
                <pitch>
                    <step>C</step>
                    <octave>5</octave>
                </pitch>
                <duration>2</duration>
                <voice>1</voice>
                <type>eighth</type>
                <stem default-y="-55">down</stem>
                <staff>1</staff>
                <beam number="1">end</beam>
            </note>
            <note default-x="228">
                <pitch>
                    <step>E</step>
                    <octave>5</octave>
                </pitch>
                <duration>4</duration>
                <voice>1</voice>
                <type>quarter</type>
                <stem default-y="-46">down</stem>
                <staff>1</staff>
            </note>
            <backup>
                <duration>16</duration>
            </backup>
            <note default-x="64">
                <pitch>
                    <step>A</step>
                    <octave>3</octave>
                </pitch>
                <duration>4</duration>
                <voice>2</voice>
                <type>quarter</type>
                <stem default-y="-19">up</stem>
                <staff>2</staff>
            </note>
            <note default-x="117">
                <pitch>
                    <step>E</step>
                    <octave>4</octave>
                </pitch>
                <duration>4</duration>
                <voice>2</voice>
                <type>quarter</type>
                <stem default-y="-5">up</stem>
                <staff>2</staff>
            </note>
            <note default-x="174">
                <pitch>
                    <step>A</step>
                    <octave>3</octave>
                </pitch>
                <duration>4</duration>
                <voice>2</voice>
                <type>quarter</type>
                <stem default-y="-20">up</stem>
                <staff>2</staff>
            </note>
            <note default-x="226">
                <pitch>
                    <step>C</step>
                    <octave>4</octave>
                </pitch>
                <duration>2</duration>
                <voice>2</voice>
                <type>eighth</type>
                <stem default-y="-2">up</stem>
                <staff>2</staff>
                <beam number="1">begin</beam>
            </note>
            <note default-x="250">
                <pitch>
                    <step>E</step>
                    <octave>4</octave>
                </pitch>
                <duration>2</duration>
                <voice>2</voice>
                <type>eighth</type>
                <stem default-y="-1">up</stem>
                <staff>2</staff>
                <beam number="1">end</beam>
            </note>
        </measure>
        <measure number="2" width="231">
            <print new-system="no"/>
            <note default-x="13">
                <pitch>
                    <step>B</step>
                    <octave>4</octave>
                </pitch>
                <duration>3</duration>
                <voice>1</voice>
                <type>eighth</type>
                <dot/>
                <stem default-y="13">up</stem>
                <staff>1</staff>
                <beam number="1">begin</beam>
            </note>
            <note default-x="48">
                <pitch>
                    <step>A</step>
                    <octave>4</octave>
                </pitch>
                <duration>1</duration>
                <voice>1</voice>
                <type>16th</type>
                <stem default-y="12">up</stem>
                <staff>1</staff>
                <beam number="1">end</beam>
                <beam number="2">backward hook</beam>
            </note>
            <note default-x="72">
                <pitch>
                    <step>G</step>
                    <alter>1</alter>
                    <octave>4</octave>
                </pitch>
                <duration>2</duration>
                <voice>1</voice>
                <type>eighth</type>
                <accidental>sharp</accidental>
                <stem default-y="7">up</stem>
                <staff>1</staff>
                <beam number="1">begin</beam>
            </note>
            <note default-x="97">
                <pitch>
                    <step>G</step>
                    <alter>1</alter>
                    <octave>4</octave>
                </pitch>
                <duration>2</duration>
                <voice>1</voice>
                <type>eighth</type>
                <stem default-y="6">up</stem>
                <staff>1</staff>
                <beam number="1">end</beam>
            </note>
            <note default-x="123">
                <pitch>
                    <step>B</step>
                    <octave>4</octave>
                </pitch>
                <duration>2</duration>
                <voice>1</voice>
                <type>eighth</type>
                <stem default-y="13">up</stem>
                <staff>1</staff>
                <beam number="1">begin</beam>
            </note>
            <note default-x="148">
                <pitch>
                    <step>B</step>
                    <octave>4</octave>
                </pitch>
                <duration>2</duration>
                <voice>1</voice>
                <type>eighth</type>
                <stem default-y="13">up</stem>
                <staff>1</staff>
                <beam number="1">end</beam>
            </note>
            <note default-x="180">
                <pitch>
                    <step>E</step>
                    <octave>5</octave>
                </pitch>
                <duration>4</duration>
                <voice>1</voice>
                <type>quarter</type>
                <stem default-y="-51">down</stem>
                <staff>1</staff>
            </note>
            <backup>
                <duration>16</duration>
            </backup>
            <note default-x="13">
                <pitch>
                    <step>E</step>
                    <octave>3</octave>
                </pitch>
                <duration>4</duration>
                <voice>2</voice>
                <type>quarter</type>
                <stem default-y="-109">down</stem>
                <staff>2</staff>
            </note>
            <note default-x="71">
                <pitch>
                    <step>B</step>
                    <octave>3</octave>
                </pitch>
                <duration>4</duration>
                <voice>2</voice>
                <type>quarter</type>
                <stem default-y="-21">up</stem>
                <staff>2</staff>
            </note>
            <note default-x="122">
                <pitch>
                    <step>D</step>
                    <octave>4</octave>
                </pitch>
                <duration>4</duration>
                <voice>2</voice>
                <type>quarter</type>
                <stem default-y="-12">up</stem>
                <staff>2</staff>
            </note>
            <note default-x="178">
                <pitch>
                    <step>C</step>
                    <octave>4</octave>
                </pitch>
                <duration>2</duration>
                <voice>2</voice>
                <type>eighth</type>
                <stem default-y="-17">up</stem>
                <staff>2</staff>
                <beam number="1">begin</beam>
            </note>
            <note default-x="201">
                <pitch>
                    <step>B</step>
                    <octave>3</octave>
                </pitch>
                <duration>2</duration>
                <voice>2</voice>
                <type>eighth</type>
                <stem default-y="-17">up</stem>
                <staff>2</staff>
                <beam number="1">end</beam>
            </note>
            <backup>
                <duration>16</duration>
            </backup>
            <note default-x="13">
                <pitch>
                    <step>E</step>
                    <octave>3</octave>
                </pitch>
                <duration>4</duration>
                <voice>3</voice>
                <type>quarter</type>
                <stem default-y="-21">up</stem>
                <staff>2</staff>
            </note>
            <forward>
                <duration>12</duration>
                <voice>3</voice>
                <staff>2</staff>
            </forward>
        </measure>
        <measure number="3" width="234">
            <print new-system="no"/>
            <note default-x="16">
                <pitch>
                    <step>C</step>
                    <octave>5</octave>
                </pitch>
                <duration>3</duration>
                <voice>1</voice>
                <type>eighth</type>
                <dot/>
                <stem default-y="-63">down</stem>
                <staff>1</staff>
                <beam number="1">begin</beam>
            </note>
            <note default-x="51">
                <pitch>
                    <step>B</step>
                    <octave>4</octave>
                </pitch>
                <duration>1</duration>
                <voice>1</voice>
                <type>16th</type>
                <stem default-y="-64">down</stem>
                <staff>1</staff>
                <beam number="1">end</beam>
                <beam number="2">backward hook</beam>
            </note>
            <note default-x="70">
                <pitch>
                    <step>A</step>
                    <octave>4</octave>
                </pitch>
                <duration>2</duration>
                <voice>1</voice>
                <type>eighth</type>
                <stem default-y="7">up</stem>
                <staff>1</staff>
                <beam number="1">begin</beam>
            </note>
            <note default-x="94">
                <pitch>
                    <step>A</step>
                    <octave>4</octave>
                </pitch>
                <duration>2</duration>
                <voice>1</voice>
                <type>eighth</type>
                <stem default-y="6">up</stem>
                <staff>1</staff>
                <beam number="1">end</beam>
            </note>
            <note default-x="125">
                <pitch>
                    <step>C</step>
                    <octave>5</octave>
                </pitch>
                <duration>2</duration>
                <voice>1</voice>
                <type>eighth</type>
                <stem default-y="-61">down</stem>
                <staff>1</staff>
                <beam number="1">begin</beam>
            </note>
            <note default-x="151">
                <pitch>
                    <step>C</step>
                    <octave>5</octave>
                </pitch>
                <duration>2</duration>
                <voice>1</voice>
                <type>eighth</type>
                <stem default-y="-60">down</stem>
                <staff>1</staff>
                <beam number="1">end</beam>
            </note>
            <note default-x="179">
                <pitch>
                    <step>E</step>
                    <octave>5</octave>
                </pitch>
                <duration>4</duration>
                <voice>1</voice>
                <type>quarter</type>
                <stem default-y="-52">down</stem>
                <staff>1</staff>
            </note>
            <backup>
                <duration>16</duration>
            </backup>
            <note default-x="15">
                <pitch>
                    <step>A</step>
                    <octave>3</octave>
                </pitch>
                <duration>4</duration>
                <voice>2</voice>
                <type>quarter</type>
                <stem default-y="-24">up</stem>
                <staff>2</staff>
            </note>
            <note default-x="69">
                <pitch>
                    <step>E</step>
                    <octave>4</octave>
                </pitch>
                <duration>4</duration>
                <voice>2</voice>
                <type>quarter</type>
                <stem default-y="-12">up</stem>
                <staff>2</staff>
            </note>
            <note default-x="124">
                <pitch>
                    <step>A</step>
                    <octave>3</octave>
                </pitch>
                <duration>4</duration>
                <voice>2</voice>
                <type>quarter</type>
                <stem default-y="-26">up</stem>
                <staff>2</staff>
            </note>
            <note default-x="177">
                <pitch>
                    <step>C</step>
                    <octave>4</octave>
                </pitch>
                <duration>2</duration>
                <voice>2</voice>
                <type>eighth</type>
                <stem default-y="-13">up</stem>
                <staff>2</staff>
                <beam number="1">begin</beam>
            </note>
            <note default-x="202">
                <pitch>
                    <step>E</step>
                    <octave>4</octave>
                </pitch>
                <duration>2</duration>
                <voice>2</voice>
                <type>eighth</type>
                <stem default-y="-11">up</stem>
                <staff>2</staff>
                <beam number="1">end</beam>
            </note>
        </measure>
        <measure number="4" width="221">
            <print new-system="no"/>
            <note default-x="15">
                <pitch>
                    <step>B</step>
                    <octave>4</octave>
                </pitch>
                <duration>2</duration>
                <voice>1</voice>
                <type>eighth</type>
                <stem default-y="-66">down</stem>
                <staff>1</staff>
                <beam number="1">begin</beam>
            </note>
            <note default-x="42">
                <pitch>
                    <step>D</step>
                    <octave>5</octave>
                </pitch>
                <duration>2</duration>
                <voice>1</voice>
                <type>eighth</type>
                <stem default-y="-65">down</stem>
                <staff>1</staff>
                <beam number="1">end</beam>
            </note>
            <note default-x="67">
                <pitch>
                    <step>G</step>
                    <alter>1</alter>
                    <octave>4</octave>
                </pitch>
                <duration>2</duration>
                <voice>1</voice>
                <type>eighth</type>
                <accidental>sharp</accidental>
                <stem default-y="3">up</stem>
                <staff>1</staff>
                <beam number="1">begin</beam>
            </note>
            <note default-x="94">
                <pitch>
                    <step>B</step>
                    <octave>4</octave>
                </pitch>
                <duration>2</duration>
                <voice>1</voice>
                <type>eighth</type>
                <stem default-y="4">up</stem>
                <staff>1</staff>
                <beam number="1">end</beam>
            </note>
            <note default-x="120">
                <pitch>
                    <step>A</step>
                    <octave>4</octave>
                </pitch>
                <duration>2</duration>
                <voice>1</voice>
                <type>eighth</type>
                <stem default-y="4">up</stem>
                <staff>1</staff>
                <beam number="1">begin</beam>
            </note>
            <note default-x="147">
                <pitch>
                    <step>A</step>
                    <octave>4</octave>
                </pitch>
                <duration>2</duration>
                <voice>1</voice>
                <type>eighth</type>
                <stem default-y="4">up</stem>
                <staff>1</staff>
                <beam number="1">end</beam>
            </note>
            <note default-x="172">
                <pitch>
                    <step>A</step>
                    <octave>4</octave>
                </pitch>
                <duration>4</duration>
                <voice>1</voice>
                <type>quarter</type>
                <stem default-y="0">up</stem>
                <staff>1</staff>
            </note>
            <backup>
                <duration>16</duration>
            </backup>
            <note default-x="13">
                <pitch>
                    <step>D</step>
                    <octave>4</octave>
                </pitch>
                <duration>2</duration>
                <voice>2</voice>
                <type>eighth</type>
                <stem default-y="-7">up</stem>
                <staff>2</staff>
                <beam number="1">begin</beam>
            </note>
            <note default-x="41">
                <pitch>
                    <step>F</step>
                    <octave>4</octave>
                </pitch>
                <duration>2</duration>
                <voice>2</voice>
                <type>eighth</type>
                <stem default-y="-5">up</stem>
                <staff>2</staff>
                <beam number="1">end</beam>
            </note>
            <note default-x="66">
                <pitch>
                    <step>E</step>
                    <octave>4</octave>
                </pitch>
                <duration>2</duration>
                <voice>2</voice>
                <type>eighth</type>
                <stem default-y="-12">up</stem>
                <staff>2</staff>
                <beam number="1">begin</beam>
            </note>
            <note default-x="93">
                <pitch>
                    <step>D</step>
                    <octave>4</octave>
                </pitch>
                <duration>2</duration>
                <voice>2</voice>
                <type>eighth</type>
                <stem default-y="-14">up</stem>
                <staff>2</staff>
                <beam number="1">end</beam>
            </note>
            <note default-x="119">
                <pitch>
                    <step>C</step>
                    <octave>4</octave>
                </pitch>
                <duration>2</duration>
                <voice>2</voice>
                <type>eighth</type>
                <stem default-y="-19">up</stem>
                <staff>2</staff>
                <beam number="1">begin</beam>
            </note>
            <note default-x="146">
                <pitch>
                    <step>B</step>
                    <octave>3</octave>
                </pitch>
                <duration>2</duration>
                <voice>2</voice>
                <type>eighth</type>
                <stem default-y="-22">up</stem>
                <staff>2</staff>
                <beam number="1">end</beam>
            </note>
            <note default-x="171">
                <pitch>
                    <step>A</step>
                    <octave>3</octave>
                </pitch>
                <duration>4</duration>
                <voice>2</voice>
                <type>quarter</type>
                <stem default-y="-28">up</stem>
                <staff>2</staff>
            </note>
        </measure>
        <measure number="5" width="273">
            <print new-system="yes">
                <system-layout>
                    <system-margins>
                        <left-margin>-31</left-margin>
                        <right-margin>-3</right-margin>
                    </system-margins>
                    <system-distance>116</system-distance>
                </system-layout>
                <staff-layout number="2">
                    <staff-distance>74</staff-distance>
                </staff-layout>
            </print>
            <attributes>
                <staff-details print-object="yes"/>
            </attributes>
            <note default-x="50">
                <pitch>
                    <step>E</step>
                    <octave>5</octave>
                </pitch>
                <duration>3</duration>
                <voice>1</voice>
                <type>eighth</type>
                <dot/>
                <stem default-y="-50">down</stem>
                <staff>1</staff>
                <beam number="1">begin</beam>
            </note>
            <note default-x="87">
                <pitch>
                    <step>D</step>
                    <octave>5</octave>
                </pitch>
                <duration>1</duration>
                <voice>1</voice>
                <type>16th</type>
                <stem default-y="-50">down</stem>
                <staff>1</staff>
                <beam number="1">end</beam>
                <beam number="2">backward hook</beam>
            </note>
            <note default-x="106">
                <pitch>
                    <step>C</step>
                    <octave>5</octave>
                </pitch>
                <duration>2</duration>
                <voice>1</voice>
                <type>eighth</type>
                <stem default-y="-53">down</stem>
                <staff>1</staff>
                <beam number="1">begin</beam>
            </note>
            <note default-x="132">
                <pitch>
                    <step>C</step>
                    <octave>5</octave>
                </pitch>
                <duration>2</duration>
                <voice>1</voice>
                <type>eighth</type>
                <stem default-y="-53">down</stem>
                <staff>1</staff>
                <beam number="1">end</beam>
            </note>
            <note default-x="161">
                <pitch>
                    <step>E</step>
                    <octave>5</octave>
                </pitch>
                <duration>2</duration>
                <voice>1</voice>
                <type>eighth</type>
                <stem default-y="-45">down</stem>
                <staff>1</staff>
                <beam number="1">begin</beam>
            </note>
            <note default-x="188">
                <pitch>
                    <step>E</step>
                    <octave>5</octave>
                </pitch>
                <duration>2</duration>
                <voice>1</voice>
                <type>eighth</type>
                <stem default-y="-45">down</stem>
                <staff>1</staff>
                <beam number="1">end</beam>
            </note>
            <note default-x="216">
                <pitch>
                    <step>G</step>
                    <octave>5</octave>
                </pitch>
                <duration>4</duration>
                <voice>1</voice>
                <type>quarter</type>
                <stem default-y="-35">down</stem>
                <staff>1</staff>
            </note>
            <backup>
                <duration>16</duration>
            </backup>
            <note default-x="48">
                <pitch>
                    <step>C</step>
                    <octave>4</octave>
                </pitch>
                <duration>4</duration>
                <voice>2</voice>
                <type>quarter</type>
                <stem default-y="-14">up</stem>
                <staff>2</staff>
            </note>
            <note default-x="103">
                <pitch>
                    <step>E</step>
                    <octave>4</octave>
                </pitch>
                <duration>4</duration>
                <voice>2</voice>
                <type>quarter</type>
                <stem default-y="-4">up</stem>
                <staff>2</staff>
            </note>
            <note default-x="157">
                <pitch>
                    <step>C</step>
                    <octave>4</octave>
                </pitch>
                <duration>4</duration>
                <voice>2</voice>
                <type>quarter</type>
                <stem default-y="-15">up</stem>
                <staff>2</staff>
            </note>
            <note default-x="213">
                <pitch>
                    <step>D</step>
                    <octave>4</octave>
                </pitch>
                <duration>2</duration>
                <voice>2</voice>
                <type>eighth</type>
                <stem default-y="-10">up</stem>
                <staff>2</staff>
                <beam number="1">begin</beam>
            </note>
            <note default-x="241">
                <pitch>
                    <step>C</step>
                    <octave>4</octave>
                </pitch>
                <duration>2</duration>
                <voice>2</voice>
                <type>eighth</type>
                <stem default-y="-11">up</stem>
                <staff>2</staff>
                <beam number="1">end</beam>
            </note>
        </measure>
        <measure number="6" width="243">
            <print new-system="no"/>
            <note default-x="17">
                <pitch>
                    <step>D</step>
                    <octave>5</octave>
                </pitch>
                <duration>3</duration>
                <voice>1</voice>
                <type>eighth</type>
                <dot/>
                <stem default-y="-55">down</stem>
                <staff>1</staff>
                <beam number="1">begin</beam>
            </note>
            <note default-x="55">
                <pitch>
                    <step>C</step>
                    <octave>5</octave>
                </pitch>
                <duration>1</duration>
                <voice>1</voice>
                <type>16th</type>
                <stem default-y="-55">down</stem>
                <staff>1</staff>
                <beam number="1">end</beam>
                <beam number="2">backward hook</beam>
            </note>
            <note default-x="75">
                <pitch>
                    <step>B</step>
                    <octave>4</octave>
                </pitch>
                <duration>2</duration>
                <voice>1</voice>
                <type>eighth</type>
                <stem default-y="-60">down</stem>
                <staff>1</staff>
                <beam number="1">begin</beam>
            </note>
            <note default-x="101">
                <pitch>
                    <step>B</step>
                    <octave>4</octave>
                </pitch>
                <duration>2</duration>
                <voice>1</voice>
                <type>eighth</type>
                <stem default-y="-60">down</stem>
                <staff>1</staff>
                <beam number="1">end</beam>
            </note>
            <note default-x="129">
                <pitch>
                    <step>D</step>
                    <octave>5</octave>
                </pitch>
                <duration>2</duration>
                <voice>1</voice>
                <type>eighth</type>
                <stem default-y="-54">down</stem>
                <staff>1</staff>
                <beam number="1">begin</beam>
            </note>
            <note default-x="156">
                <pitch>
                    <step>D</step>
                    <octave>5</octave>
                </pitch>
                <duration>2</duration>
                <voice>1</voice>
                <type>eighth</type>
                <stem default-y="-54">down</stem>
                <staff>1</staff>
                <beam number="1">end</beam>
            </note>
            <note default-x="185">
                <pitch>
                    <step>G</step>
                    <octave>5</octave>
                </pitch>
                <duration>4</duration>
                <voice>1</voice>
                <type>quarter</type>
                <stem default-y="-38">down</stem>
                <staff>1</staff>
            </note>
            <backup>
                <duration>16</duration>
            </backup>
            <note default-x="13">
                <pitch>
                    <step>B</step>
                    <octave>3</octave>
                </pitch>
                <duration>4</duration>
                <voice>2</voice>
                <type>quarter</type>
                <stem default-y="-18">up</stem>
                <staff>2</staff>
            </note>
            <note default-x="71">
                <pitch>
                    <step>D</step>
                    <octave>4</octave>
                </pitch>
                <duration>4</duration>
                <voice>2</voice>
                <type>quarter</type>
                <stem default-y="-12">up</stem>
                <staff>2</staff>
            </note>
            <note default-x="125">
                <pitch>
                    <step>G</step>
                    <octave>3</octave>
                </pitch>
                <duration>4</duration>
                <voice>2</voice>
                <type>quarter</type>
                <stem default-y="-24">up</stem>
                <staff>2</staff>
            </note>
            <note default-x="181">
                <pitch>
                    <step>B</step>
                    <octave>3</octave>
                </pitch>
                <duration>2</duration>
                <voice>2</voice>
                <type>eighth</type>
                <stem default-y="-22">up</stem>
                <staff>2</staff>
                <beam number="1">begin</beam>
            </note>
            <note default-x="207">
                <pitch>
                    <step>G</step>
                    <octave>3</octave>
                </pitch>
                <duration>2</duration>
                <voice>2</voice>
                <type>eighth</type>
                <stem default-y="-25">up</stem>
                <staff>2</staff>
                <beam number="1">end</beam>
            </note>
        </measure>
        <measure number="7" width="243">
            <print new-system="no"/>
            <note default-x="17">
                <pitch>
                    <step>C</step>
                    <octave>5</octave>
                </pitch>
                <duration>3</duration>
                <voice>1</voice>
                <type>eighth</type>
                <dot/>
                <stem default-y="-60">down</stem>
                <staff>1</staff>
                <beam number="1">begin</beam>
            </note>
            <note default-x="54">
                <pitch>
                    <step>B</step>
                    <octave>4</octave>
                </pitch>
                <duration>1</duration>
                <voice>1</voice>
                <type>16th</type>
                <stem default-y="-62">down</stem>
                <staff>1</staff>
                <beam number="1">end</beam>
                <beam number="2">backward hook</beam>
            </note>
            <note default-x="73">
                <pitch>
                    <step>A</step>
                    <octave>4</octave>
                </pitch>
                <duration>2</duration>
                <voice>1</voice>
                <type>eighth</type>
                <stem default-y="4">up</stem>
                <staff>1</staff>
                <beam number="1">begin</beam>
            </note>
            <note default-x="97">
                <pitch>
                    <step>A</step>
                    <octave>4</octave>
                </pitch>
                <duration>2</duration>
                <voice>1</voice>
                <type>eighth</type>
                <stem default-y="4">up</stem>
                <staff>1</staff>
                <beam number="1">end</beam>
            </note>
            <note default-x="130">
                <pitch>
                    <step>C</step>
                    <octave>5</octave>
                </pitch>
                <duration>2</duration>
                <voice>1</voice>
                <type>eighth</type>
                <stem default-y="-60">down</stem>
                <staff>1</staff>
                <beam number="1">begin</beam>
            </note>
            <note default-x="156">
                <pitch>
                    <step>C</step>
                    <octave>5</octave>
                </pitch>
                <duration>2</duration>
                <voice>1</voice>
                <type>eighth</type>
                <stem default-y="-61">down</stem>
                <staff>1</staff>
                <beam number="1">end</beam>
            </note>
            <note default-x="185">
                <pitch>
                    <step>E</step>
                    <octave>5</octave>
                </pitch>
                <duration>4</duration>
                <voice>1</voice>
                <type>quarter</type>
                <stem default-y="-50">down</stem>
                <staff>1</staff>
            </note>
            <backup>
                <duration>16</duration>
            </backup>
            <note default-x="12">
                <pitch>
                    <step>A</step>
                    <octave>3</octave>
                </pitch>
                <duration>4</duration>
                <voice>2</voice>
                <type>quarter</type>
                <stem default-y="-23">up</stem>
                <staff>2</staff>
            </note>
            <note default-x="67">
                <pitch>
                    <step>E</step>
                    <octave>3</octave>
                </pitch>
                <duration>4</duration>
                <voice>2</voice>
                <type>quarter</type>
                <stem default-y="-25">up</stem>
                <staff>2</staff>
            </note>
            <note default-x="125">
                <pitch>
                    <step>A</step>
                    <octave>3</octave>
                </pitch>
                <duration>4</duration>
                <voice>2</voice>
                <type>quarter</type>
                <stem default-y="-25">up</stem>
                <staff>2</staff>
            </note>
            <note default-x="180">
                <pitch>
                    <step>B</step>
                    <octave>3</octave>
                </pitch>
                <duration>2</duration>
                <voice>2</voice>
                <type>eighth</type>
                <stem default-y="-18">up</stem>
                <staff>2</staff>
                <beam number="1">begin</beam>
            </note>
            <note default-x="209">
                <pitch>
                    <step>C</step>
                    <octave>4</octave>
                </pitch>
                <duration>2</duration>
                <voice>2</voice>
                <type>eighth</type>
                <stem default-y="-18">up</stem>
                <staff>2</staff>
                <beam number="1">end</beam>
            </note>
        </measure>
        <measure number="8" width="258">
            <print new-system="no"/>
            <barline location="right">
                <bar-style>light-light</bar-style>
            </barline>
            <note default-x="14">
                <pitch>
                    <step>B</step>
                    <octave>4</octave>
                </pitch>
                <duration>3</duration>
                <voice>1</voice>
                <type>eighth</type>
                <dot/>
                <stem default-y="-66">down</stem>
                <staff>1</staff>
                <beam number="1">begin</beam>
            </note>
            <direction placement="below">
                <direction-type>
                    <words font-family="sans-serif" font-style="italic" font-size="11" default-y="-96" relative-x="14">R/tenuto</words>
                </direction-type>
                <staff>1</staff>
            </direction>
            <note default-x="59">
                <pitch>
                    <step>D</step>
                    <octave>5</octave>
                </pitch>
                <duration>1</duration>
                <voice>1</voice>
                <type>16th</type>
                <stem default-y="-63">down</stem>
                <staff>1</staff>
                <beam number="1">end</beam>
                <beam number="2">backward hook</beam>
            </note>
            <note default-x="79">
                <pitch>
                    <step>G</step>
                    <alter>1</alter>
                    <octave>4</octave>
                </pitch>
                <duration>2</duration>
                <voice>1</voice>
                <type>eighth</type>
                <accidental>sharp</accidental>
                <stem default-y="3">up</stem>
                <staff>1</staff>
                <beam number="1">begin</beam>
            </note>
            <note default-x="108">
                <pitch>
                    <step>B</step>
                    <octave>4</octave>
                </pitch>
                <duration>2</duration>
                <voice>1</voice>
                <type>eighth</type>
                <stem default-y="4">up</stem>
                <staff>1</staff>
                <beam number="1">end</beam>
            </note>
            <note default-x="144">
                <pitch>
                    <step>A</step>
                    <octave>4</octave>
                </pitch>
                <duration>2</duration>
                <voice>1</voice>
                <type>eighth</type>
                <stem default-y="0">up</stem>
                <staff>1</staff>
                <beam number="1">begin</beam>
            </note>
            <note default-x="174">
                <pitch>
                    <step>G</step>
                    <alter>1</alter>
                    <octave>4</octave>
                </pitch>
                <duration>2</duration>
                <voice>1</voice>
                <type>eighth</type>
                <accidental>sharp</accidental>
                <stem default-y="-2">up</stem>
                <staff>1</staff>
                <beam number="1">end</beam>
            </note>
            <note default-x="202">
                <pitch>
                    <step>A</step>
                    <octave>4</octave>
                </pitch>
                <duration>4</duration>
                <voice>1</voice>
                <type>quarter</type>
                <stem default-y="-1">up</stem>
                <staff>1</staff>
            </note>
            <backup>
                <duration>16</duration>
            </backup>
            <note default-x="11">
                <pitch>
                    <step>D</step>
                    <octave>4</octave>
                </pitch>
                <duration>2</duration>
                <voice>2</voice>
                <type>eighth</type>
                <stem default-y="-17">up</stem>
                <staff>2</staff>
                <beam number="1">begin</beam>
            </note>
            <note default-x="40">
                <pitch>
                    <step>B</step>
                    <octave>3</octave>
                </pitch>
                <duration>2</duration>
                <voice>2</voice>
                <type>eighth</type>
                <stem default-y="-18">up</stem>
                <staff>2</staff>
                <beam number="1">end</beam>
            </note>
            <note default-x="78">
                <pitch>
                    <step>E</step>
                    <octave>4</octave>
                </pitch>
                <duration>3</duration>
                <voice>2</voice>
                <type>eighth</type>
                <dot/>
                <stem default-y="-10">up</stem>
                <staff>2</staff>
                <beam number="1">begin</beam>
            </note>
            <note default-x="122">
                <pitch>
                    <step>D</step>
                    <octave>4</octave>
                </pitch>
                <duration>1</duration>
                <voice>2</voice>
                <type>16th</type>
                <stem default-y="-14">up</stem>
                <staff>2</staff>
                <beam number="1">end</beam>
                <beam number="2">backward hook</beam>
            </note>
            <note default-x="141">
                <pitch>
                    <step>C</step>
                    <octave>4</octave>
                </pitch>
                <duration>2</duration>
                <voice>2</voice>
                <type>eighth</type>
                <stem default-y="-25">up</stem>
                <staff>2</staff>
                <beam number="1">begin</beam>
            </note>
            <note default-x="172">
                <pitch>
                    <step>E</step>
                    <octave>3</octave>
                </pitch>
                <duration>2</duration>
                <voice>2</voice>
                <type>eighth</type>
                <stem default-y="-27">up</stem>
                <staff>2</staff>
                <beam number="1">end</beam>
            </note>
            <note default-x="200">
                <pitch>
                    <step>A</step>
                    <octave>3</octave>
                </pitch>
                <duration>4</duration>
                <voice>2</voice>
                <type>quarter</type>
                <stem default-y="-30">up</stem>
                <staff>2</staff>
            </note>
            <backup>
                <duration>16</duration>
            </backup>
            <forward>
                <duration>10</duration>
                <voice>3</voice>
                <staff>2</staff>
            </forward>
            <note default-x="172">
                <pitch>
                    <step>E</step>
                    <octave>3</octave>
                </pitch>
                <duration>2</duration>
                <voice>3</voice>
                <type>eighth</type>
                <stem default-y="-121">down</stem>
                <staff>2</staff>
            </note>
            <forward>
                <duration>4</duration>
                <voice>3</voice>
                <staff>2</staff>
            </forward>
        </measure>
    </part>
</score-partwise>